<svg id="epIxrQV2qkO1" xmlns="http://www.w3.org/2000/svg" xmlns:xlink="http://www.w3.org/1999/xlink"
    viewBox="75 150 850 500" shape-rendering="geometricPrecision" text-rendering="geometricPrecision"
    preserveAspectRatio="none">
    <line x1="-50" y1="0" x2="400" y2="0" transform="matrix(0 1-1 0 500 225)" fill="none"
        stroke="#000" stroke-width="5" vector-effect="non-scaling-stroke" />
    <line x1="-50" y1="0" x2="325" y2="0" transform="translate(575 647)" fill="none" stroke="#000"
        stroke-width="5" vector-effect="non-scaling-stroke"/>
    <line x1="-50" y1="0" x2="325" y2="0" transform="translate(575 525)" fill="none" stroke="#000"
        stroke-width="5" vector-effect="non-scaling-stroke"/>
    <line x1="-50" y1="0" x2="325" y2="0" transform="translate(575 275)" fill="none" stroke="#000"
        stroke-width="5" vector-effect="non-scaling-stroke"/>
    <line x1="-50" y1="0" x2="325" y2="0" transform="translate(575 400)" fill="none" stroke="#000"
        stroke-width="5" vector-effect="non-scaling-stroke"/>
    <line x1="-50" y1="0" x2="325" y2="0" transform="translate(575 153)" fill="none" stroke="#000"
        stroke-width="5" vector-effect="non-scaling-stroke"/>
    <line x1="-50" y1="0" x2="325" y2="0" transform="translate(150 153)" fill="none" stroke="#000"
        stroke-width="5" vector-effect="non-scaling-stroke"/>
    <line x1="-50" y1="0" x2="325" y2="0" transform="translate(150 647)" fill="none" stroke="#000"
        stroke-width="5" vector-effect="non-scaling-stroke"/>
    <line x1="-50" y1="0" x2="400" y2="0" transform="matrix(0 1-1 0 922 225)" fill="none"
        stroke="#000" stroke-width="5" vector-effect="non-scaling-stroke"/>
    <line x1="-50" y1="0" x2="400" y2="0" transform="matrix(0 1-1 0 78 225)" fill="none"
        stroke="#000" stroke-width="5" vector-effect="non-scaling-stroke"/>
</svg>