<svg cache-id="5750ac424df14f589e6311275396b74c" id="eGztLDY1qRS1"
    xmlns="http://www.w3.org/2000/svg" xmlns:xlink="http://www.w3.org/1999/xlink"
    viewBox="75 150 850 500" shape-rendering="geometricPrecision" text-rendering="geometricPrecision"
    preserveAspectRatio="none">
    <line x1="-50" y1="0" x2="400" y2="0" transform="matrix(0 1-1 0 585 225)" fill="none"
        stroke="#000" stroke-width="5" vector-effect="non-scaling-stroke" />
    <line x1="-50" y1="0" x2="240" y2="0" transform="translate(660 647)" fill="none" stroke="#000"
        stroke-width="5" vector-effect="non-scaling-stroke" />
    <line x1="-50" y1="0" x2="240" y2="0" transform="translate(660 153)" fill="none" stroke="#000"
        stroke-width="5" vector-effect="non-scaling-stroke" />
    <line x1="-50" y1="0" x2="410" y2="0" transform="translate(150 400)" fill="none" stroke="#000"
        stroke-width="5" vector-effect="non-scaling-stroke" />
    <line x1="-50" y1="0" x2="410" y2="0" transform="translate(150 153)" fill="none" stroke="#000"
        stroke-width="5" vector-effect="non-scaling-stroke" />
    <line x1="-50" y1="0" x2="410" y2="0" transform="translate(150 647)" fill="none" stroke="#000"
        stroke-width="5" vector-effect="non-scaling-stroke" />
    <line x1="-50" y1="0" x2="400" y2="0" transform="matrix(0 1-1 0 922 225)" fill="none"
        stroke="#000" stroke-width="5" vector-effect="non-scaling-stroke" />
    <line x1="-50" y1="0" x2="400" y2="0" transform="matrix(0 1-1 0 78 225)" fill="none"
        stroke="#000" stroke-width="5" vector-effect="non-scaling-stroke" />
</svg>